<svg id="Layer_1" data-name="Layer 1" xmlns="http://www.w3.org/2000/svg" viewBox="0 0 184.77 40.17"><defs><style>.cls-1{fill:#fff;}</style></defs><title>Artboard 6</title><polygon class="cls-1" points="33.81 14.5 14.5 14.5 14.5 25.67 33.81 25.67 33.81 40.17 44.97 40.17 44.97 0 33.81 0 33.81 14.5"/><polygon class="cls-1" points="0 40.17 11.17 40.17 11.17 -1.01 0 10.16 0 40.17"/><polygon class="cls-1" points="60.56 11.16 99.18 11.16 99.18 0 59.48 0 49.39 10.16 49.39 40.17 89.02 40.17 100.18 29 60.56 29 60.56 11.16"/><rect class="cls-1" x="63.82" y="14.5" width="20.86" height="11.17"/><polygon class="cls-1" points="129.65 10.47 119.18 0 102.59 0 121.35 18.77 129.65 10.47"/><polygon class="cls-1" points="132.36 29.77 142.75 40.17 159.35 40.17 140.66 21.48 132.36 29.77"/><polygon class="cls-1" points="142.75 0 102.59 40.17 119.18 40.17 159.35 0 142.75 0"/><polygon class="cls-1" points="163.35 10.43 152.88 10.43 147.64 19.5 152.88 28.57 163.35 28.57 168.59 19.5 163.35 10.43"/><polygon class="cls-1" points="169.06 19.84 163.83 28.91 169.06 37.98 179.54 37.98 184.77 28.91 179.54 19.84 169.06 19.84"/><polygon class="cls-1" points="179.54 19.32 184.77 10.25 179.54 1.18 169.06 1.18 163.83 10.25 169.06 19.32 179.54 19.32"/></svg>